<svg width="82" height="40" viewBox="0 0 82 40" fill="none" xmlns="http://www.w3.org/2000/svg">
<path d="M0 3.29373V0.239544H14.2782V3.29373H8.95572V17.7605H5.3225V3.29373H0Z" fill="white"/>
<path d="M16.6296 17.7605V0.239544H23.4886C24.8015 0.239544 25.9221 0.476236 26.8502 0.94962C27.7839 1.4173 28.4942 2.08175 28.9809 2.94297C29.4732 3.79848 29.7194 4.80513 29.7194 5.96293C29.7194 7.12643 29.4704 8.12738 28.9724 8.96578C28.4744 9.79848 27.7528 10.4373 26.8077 10.8821C25.8683 11.327 24.7308 11.5494 23.3952 11.5494H18.8028V8.57224H22.801C23.5027 8.57224 24.0856 8.47529 24.5497 8.28137C25.0138 8.08745 25.359 7.79658 25.5853 7.40875C25.8174 7.02091 25.9334 6.53897 25.9334 5.96293C25.9334 5.38118 25.8174 4.89069 25.5853 4.49145C25.359 4.09221 25.0109 3.78992 24.5412 3.5846C24.0772 3.37357 23.4914 3.26806 22.784 3.26806H20.3053V17.7605H16.6296ZM26.0183 9.78707L30.3391 17.7605H26.2814L22.054 9.78707H26.0183Z" fill="white"/>
<path d="M35.3135 17.7605H31.3747L37.3763 0.239544H42.1131L48.1062 17.7605H44.1674L39.8126 4.24335H39.6768L35.3135 17.7605ZM35.0674 10.8736H44.3711V13.7652H35.0674V10.8736Z" fill="white"/>
<path d="M64.721 6.37357H61.0029C60.935 5.88878 60.7963 5.45818 60.5869 5.08175C60.3775 4.69962 60.1087 4.37452 59.7805 4.10646C59.4522 3.8384 59.0731 3.63308 58.643 3.49049C58.2185 3.34791 57.7573 3.27662 57.2593 3.27662C56.3595 3.27662 55.5757 3.5019 54.9079 3.95247C54.2401 4.39734 53.7223 5.04753 53.3544 5.90304C52.9866 6.75285 52.8027 7.78517 52.8027 9C52.8027 10.2491 52.9866 11.2985 53.3544 12.1483C53.7279 12.9981 54.2486 13.6397 54.9164 14.0732C55.5842 14.5067 56.3567 14.7234 57.2338 14.7234C57.7262 14.7234 58.1818 14.6578 58.6005 14.5266C59.025 14.3954 59.4013 14.2044 59.7295 13.9534C60.0578 13.6968 60.3294 13.3859 60.5445 13.0209C60.7652 12.6559 60.918 12.2395 61.0029 11.7719L64.721 11.789C64.6248 12.5932 64.3843 13.3688 63.9994 14.116C63.6203 14.8574 63.1081 15.5219 62.463 16.1093C61.8235 16.6911 61.0595 17.153 60.171 17.4952C59.2881 17.8318 58.2893 18 57.1744 18C55.6238 18 54.2373 17.6464 53.0149 16.9392C51.7981 16.2319 50.8361 15.2082 50.1287 13.8679C49.4269 12.5276 49.0761 10.9049 49.0761 9C49.0761 7.08935 49.4326 5.46388 50.1457 4.12358C50.8587 2.78327 51.8264 1.76236 53.0488 1.06084C54.2712 0.353612 55.6464 0 57.1744 0C58.1817 0 59.1155 0.142586 59.9757 0.427757C60.8416 0.712928 61.6084 1.12928 62.2762 1.67681C62.944 2.21863 63.4873 2.88308 63.9061 3.67015C64.3305 4.45722 64.6021 5.35837 64.721 6.37357Z" fill="white"/>
<path d="M67.3568 17.7605V0.239544H71.0324V7.96483H71.2616L77.5179 0.239544H81.9236L75.4721 8.0846L82 17.7605H77.6028L72.8406 10.557L71.0324 12.7814V17.7605H67.3568Z" fill="white"/>
<path d="M17 38.7862V21.2736H24.016C25.359 21.2736 26.5052 21.5102 27.4545 21.9833C28.4097 22.4508 29.1362 23.1149 29.634 23.9757C30.1376 24.8309 30.3894 25.837 30.3894 26.9943C30.3894 28.1572 30.1347 29.1577 29.6253 29.9957C29.1159 30.828 28.3778 31.4665 27.4111 31.9111C26.4502 32.3558 25.2866 32.5781 23.9205 32.5781H19.2229V29.6024H23.3127C24.0305 29.6024 24.6267 29.5054 25.1014 29.3116C25.5761 29.1178 25.9292 28.8271 26.1607 28.4394C26.3981 28.0518 26.5167 27.57 26.5167 26.9943C26.5167 26.4128 26.3981 25.9225 26.1607 25.5235C25.9292 25.1244 25.5732 24.8223 25.0927 24.6171C24.618 24.4062 24.0189 24.3007 23.2953 24.3007H20.7598V38.7862H17ZM26.6036 30.8166L31.0233 38.7862H26.8728L22.5485 30.8166H26.6036Z" fill="white"/>
<path d="M36.8063 21.2736V38.7862H33.0465V21.2736H36.8063Z" fill="white"/>
<path d="M39.8997 38.7862V21.2736H51.674V24.3263H43.6595V28.4993H50.8926V31.552H43.6595V38.7862H39.8997Z" fill="white"/>
<path d="M54.203 38.7862V21.2736H65.9774V24.3263H57.9628V28.4993H65.1959V31.552H57.9628V38.7862H54.203Z" fill="white"/>
<path d="M78.1534 26.3102C78.0839 25.6204 77.7858 25.0845 77.259 24.7026C76.7322 24.3206 76.0173 24.1297 75.1142 24.1297C74.5006 24.1297 73.9825 24.2152 73.56 24.3862C73.1374 24.5515 72.8132 24.7824 72.5874 25.0788C72.3675 25.3753 72.2575 25.7116 72.2575 26.0879C72.2459 26.4014 72.3125 26.675 72.4572 26.9088C72.6077 27.1425 72.8132 27.3449 73.0737 27.5159C73.3342 27.6812 73.6352 27.8266 73.9768 27.952C74.3183 28.0717 74.683 28.1743 75.0708 28.2598L76.6685 28.6361C77.4442 28.8071 78.1562 29.0351 78.8046 29.3202C79.4529 29.6052 80.0144 29.9558 80.4891 30.3719C80.9638 30.7881 81.3314 31.2784 81.5919 31.8427C81.8582 32.4071 81.9942 33.0541 82 33.7838C81.9942 34.8556 81.7163 35.7848 81.1664 36.5715C80.6223 37.3525 79.835 37.9596 78.8046 38.3928C77.78 38.8204 76.5441 39.0342 75.0969 39.0342C73.6613 39.0342 72.4109 38.8176 71.3458 38.3843C70.2864 37.951 69.4586 37.3097 68.8624 36.4603C68.2719 35.6052 67.9622 34.5477 67.9333 33.2879H71.5715C71.612 33.875 71.7828 34.3653 72.0838 34.7586C72.3906 35.1463 72.7987 35.4399 73.3082 35.6394C73.8233 35.8332 74.4051 35.9301 75.0535 35.9301C75.6902 35.9301 76.2431 35.8389 76.7119 35.6565C77.1866 35.4741 77.5542 35.2204 77.8147 34.8955C78.0752 34.5705 78.2055 34.1971 78.2055 33.7753C78.2055 33.3819 78.0868 33.0513 77.8494 32.7833C77.6179 32.5154 77.2764 32.2874 76.8248 32.0993C76.3791 31.9111 75.8321 31.7401 75.1837 31.5862L73.2474 31.1073C71.7481 30.7482 70.5643 30.1867 69.696 29.4228C68.8276 28.6589 68.3964 27.6299 68.4022 26.3358C68.3964 25.2755 68.6829 24.3491 69.2618 23.5567C69.8465 22.7643 70.6482 22.1458 71.667 21.7012C72.6859 21.2565 73.8436 21.0342 75.1403 21.0342C76.4601 21.0342 77.6121 21.2565 78.5962 21.7012C79.5861 22.1458 80.356 22.7643 80.9059 23.5567C81.4558 24.3491 81.7395 25.267 81.7569 26.3102H78.1534Z" fill="white"/>
<path d="M14 21.0342L14 23.2283L4.59375 25.5457L4.59375 25.6443L14 27.9618L14 30.1559L-1.3524e-06 30.1559L-1.27696e-06 28.4302L9.1123 28.4302L9.1123 28.3603L0.0683582 26.1826L0.0683582 25.0075L9.14648 22.8298L9.14648 22.7599L-1.02911e-06 22.7599L-9.53674e-07 21.0342L14 21.0342Z" fill="#FF4040"/>
<path d="M14 31.1287L14 33.1215L7.9707 35.0403L7.9707 35.1225L14 37.0414L14 39.0342L4.94922 35.9648L-1.60631e-06 35.9648L-1.52908e-06 34.198L4.94922 34.198L14 31.1287Z" fill="#FF4040"/>
</svg>
